  




<svg
  xmlns="http://www.w3.org/2000/svg" class="Illustration Hero__svg" preserveAspectRatio="xMinYMin meet" viewBox="0 0 321.4 469.64">
  <g style="isolation:isolate">
    <g class="_1" data-name="1">
      <g class="plant">
        <path class="leaf" d="M19.74 212.92a32.48 32.48 0 008 15A32.55 32.55 0 0029.32 211a32.55 32.55 0 00-8-15 32.58 32.58 0 00-1.58 16.92z" fill="#56af96"/>
        <path class="leaf-2" data-name="leaf" d="M40.26 216.19c-1.88 8.81-9.17 15-9.17 15s-4.23-8.13-2.34-16.95 9.17-15 9.17-15 4.23 8.13 2.34 16.95z" fill="#6fdcbf"/>
        <path class="leaf-3" data-name="leaf" d="M10.14 230c5.38 12.16 14.92 26.25 14.92 26.25s.81-19.62-4.57-31.78a52.9 52.9 0 00-14.92-19.3A59.21 59.21 0 0010.14 230z" fill="#6fdcbf"/>
        <path class="leaf-4" data-name="leaf" d="M48.51 229.58c-4.66 12.51-13.76 27.27-13.76 27.27s-1.55-19.54 3.1-32.06a53.74 53.74 0 0113.76-20.27 59.54 59.54 0 01-3.1 25.06z" fill="#6fdcbf"/>
        <path class="leaf-5" data-name="leaf" d="M17.6 227c2.66 11.2 9.58 25.92 9.58 25.92s2.62-17.45 0-28.65a47.6 47.6 0 00-9.58-18.93 51.18 51.18 0 000 21.66z" fill="#6fdcbf"/>
        <path class="leaf-6" data-name="leaf" d="M17.44 230.5c2.26 9.54 8.87 22.92 8.87 22.92s2.93-16.1.67-25.65a35.83 35.83 0 00-8.87-15.92 38.68 38.68 0 00-.67 18.65z" fill="#52b292"/>
        <path class="leaf-7" data-name="leaf" d="M28.58 229.31c-1.24 11.64 4.06 29.88 4.06 29.88s7.31-16.62 8.55-28.26-4.06-21.88-4.06-21.88-7.3 8.62-8.55 20.26z" fill="#56af96"/>
        <path class="leaf-8" data-name="leaf" d="M24.21 239.5a32.51 32.51 0 004.89 16.28A32.56 32.56 0 0034 239.5c0-9-4.88-23.28-4.88-23.28s-4.91 14.29-4.91 23.28z" fill="#a4d3ba"/>
        <path d="M40.33 245.27c-.09-.82-23.24-4.2-23.15-3.37L20 267.07a.66.66 0 00.22.43.59.59 0 00.5.25H39c.45 0 .65-.09.77-.41a4.24 4.24 0 00.18-.81q1.07-10.62 1.72-21.26c0-.83-1.29-.83-1.34 0z" fill="#ad998a"/>
        <path d="M44.25 241c-.5-.54-1.54-.63-3.54-.63H18.92c-2 0-3 .05-3.47.57s-.41 1.12-.37 2.23v2.29c0 1.55 0 2.4.5 2.92s1.56.58 3.3.58h21.83c2 0 2.93 0 3.43-.55s.43-1.13.39-2.35v-1.4c0-.54 0-1.13.07-1.58.04-1.02.08-1.67-.35-2.08z" fill="#c1ab9d"/>
        <path d="M16.64 241.42a8.49 8.49 0 00-.25 3.4c.07.52.89.52.82 0a7.94 7.94 0 01.22-3.18.41.41 0 00-.79-.22zM17.18 246.47a.41.41 0 000-.82.41.41 0 000 .82zM38 255.07c-.18.74-.37 1.85.57 2.15s1.42-.48 1.48-1.22a1.74 1.74 0 00-1.05-1.89 1.07 1.07 0 00-1.12.47 1.5 1.5 0 00-.18.41c-.06.25 0 .47 0 .71a.85.85 0 00.58 1 .82.82 0 001-.57 4.4 4.4 0 00.05-.51 1.36 1.36 0 010-.2c0-.25-.11-.16-.32.26h-.43c-.17-.06-.28-.24-.16.08s-.32 0 .27-.11h.43c.25.05.34.83.41.25a2.57 2.57 0 01.07-.4c.25-1-1.34-1.47-1.58-.44zM39.61 253.82a.82.82 0 000-1.64.82.82 0 000 1.64zM39.33 259a.83.83 0 000-1.65.83.83 0 000 1.65z" fill="#fff" opacity=".49"/>
      </g>
      <g class="notes">
        <rect x="221.08" y="121.84" width="92.83" height="114.89" fill="#ad998a"/>
        <rect x="226.15" y="126.86" width="82.7" height="104.86" fill="#ccc2be"/>
        <rect x="281.68" y="134.57" width="22.72" height="19.55" fill="#fff9cc"/>
        <rect x="273.04" y="165.22" width="22.72" height="19.55" fill="#a3d9e8"/>
        <polygon points="278.45 190.03 234.38 190.03 234.38 239.27 249.32 253.78 278.45 253.78 278.45 190.03" fill="#e2e6e8"/>
        <polygon points="248.64 239.93 249.32 253.78 234.38 239.27 248.64 239.93" fill="#fff"/>
        <polygon points="260.98 187.19 258.58 193.13 259.35 193.61 264.33 188.34 260.98 187.19" fill="#939598"/>
        <path d="M267 186a3.61 3.61 0 11-3.61-3.61A3.61 3.61 0 01267 186z" fill="#9473c9"/>
        <rect x="240.8" y="148.59" width="22.72" height="19.55" fill="#dd859c"/>
        <path d="M239.29 207.16v.05l.06.85c0 .28.07.57.1.85a.64.64 0 010 .07.21.21 0 01-.09.19.2.2 0 01-.22 0 .4.4 0 01-.17-.28c0-.13-.07-.28-.1-.41-.07-.36-.16-.71-.22-1.06a9.49 9.49 0 01-.19-2 4.52 4.52 0 01.06-.53.35.35 0 01.1-.21.19.19 0 01.33 0 1 1 0 01.11.2.76.76 0 010 .16 1.1 1.1 0 000 .16c.05 0 .06-.05.07-.08a1.79 1.79 0 01.57-.56l.27-.12a.55.55 0 01.58.17 1 1 0 01.27.59 1.47 1.47 0 01-.41 1.29.11.11 0 000 .11c.14.38.28.77.41 1.15 0 .1.09.19.14.29s.08-.06.09-.1.23-.28.33-.42a7.51 7.51 0 00.64-1.1.7.7 0 01.06-.09.16.16 0 01.19-.07.17.17 0 01.1.19.84.84 0 010 .12 3 3 0 01-.35.8c-.17.3-.36.58-.56.87a1.37 1.37 0 01-.19.23.44.44 0 01-.6 0 .89.89 0 01-.27-.31c-.1-.21-.2-.42-.28-.64a5.22 5.22 0 01-.18-.56v-.12zm0-.64a2.43 2.43 0 00.71-.52 1.25 1.25 0 00.24-.95c0-.13 0-.15-.18-.11a.87.87 0 00-.31.18 1.44 1.44 0 00-.5 1.2 2.4 2.4 0 010 .28z" fill="#545454"/>
        <path d="M243.14 207.39a.7.7 0 00.46-.18 1.34 1.34 0 00.34-.44l.15-.38a2.18 2.18 0 01.09-.23.2.2 0 01.22-.11.21.21 0 01.13.22v.06a2.32 2.32 0 01-.63 1.17 1.19 1.19 0 01-.95.35.88.88 0 01-.77-.52 1.44 1.44 0 01.42-1.76.9.9 0 01.64-.21.69.69 0 01.56 1.06 1.77 1.77 0 01-.38.44.62.62 0 01-.33.17.47.47 0 01-.33 0 .36.36 0 00.38.36zm-.25-.73a.71.71 0 00.18-.08 1.35 1.35 0 00.32-.35.73.73 0 00.05-.09.21.21 0 00-.24-.28.77.77 0 00-.19.08 1 1 0 00-.33.8z" fill="#545454"/>
        <path d="M247 206a2.29 2.29 0 01-.07.28 2.25 2.25 0 01-.42.9.82.82 0 01-.45.3.85.85 0 01-.59-.06h-.09l-.07.11a1.66 1.66 0 01-.42.46.56.56 0 01-.85-.16 1.41 1.41 0 01-.2-.55 1.87 1.87 0 01.08-.81.81.81 0 01.1-.21.86.86 0 01.71-.51v-.12a5.44 5.44 0 010-1.21 3.72 3.72 0 01.11-.48.72.72 0 01.22-.35.45.45 0 01.7 0 1.09 1.09 0 01.19.35 3.27 3.27 0 01.1 1.39 5.24 5.24 0 01-.39 1.42c0 .13 0 .2.09.25a.36.36 0 00.52-.09 1.8 1.8 0 00.23-.4.44.44 0 00.05-.15 2.64 2.64 0 00.13-.4.16.16 0 01.2-.12.15.15 0 01.12.16zm-2 .93a3.42 3.42 0 01-.13-.34c0-.11 0-.23-.07-.34a.07.07 0 00-.12 0l-.08.06a.79.79 0 00-.16.3 1.47 1.47 0 000 .83.3.3 0 00.1.19l.09-.06a1.37 1.37 0 00.38-.48s.05-.09.04-.15zm.27-1.11v.11a.14.14 0 00.09.12v-.08a5.53 5.53 0 00.17-1.08 2.55 2.55 0 00-.06-.91.53.53 0 00-.05-.15c-.06-.11-.13-.11-.2 0a.6.6 0 00-.08.2 2.25 2.25 0 000 .44c.1.45.14.91.18 1.36z" fill="#545454"/>
        <path d="M247.75 207a.72.72 0 00.46-.18 1.27 1.27 0 00.33-.43l.15-.39.09-.23a.19.19 0 01.23-.1.21.21 0 01.13.21.2.2 0 000 .07 2.38 2.38 0 01-.64 1.16 1.17 1.17 0 01-.94.35.89.89 0 01-.78-.52 1.45 1.45 0 01.42-1.76 1 1 0 01.65-.2.68.68 0 01.55 1 1.61 1.61 0 01-.38.44.67.67 0 01-.33.18.5.5 0 01-.32 0 .35.35 0 00.38.4zm-.26-.72a1 1 0 00.18-.09 1.38 1.38 0 00.33-.35.39.39 0 000-.09.21.21 0 00-.24-.28.58.58 0 00-.18.08 1 1 0 00-.33.8z" fill="#545454"/>
        <path d="M250.2 206.36a1.16 1.16 0 01.17 1.09.65.65 0 01-.51.45.6.6 0 01-.66-.27.7.7 0 01-.11-.61 1.83 1.83 0 01.18-.46l.06-.1-.08-.07c-.12-.1-.24-.2-.35-.31a.87.87 0 01-.2-.45.69.69 0 01.38-.65.63.63 0 01.71.1.78.78 0 01.16.2.28.28 0 010 .18.14.14 0 01-.23.09l-.09-.09a.36.36 0 00-.26-.13.3.3 0 00-.22.1.12.12 0 000 .15.66.66 0 00.14.18l.5.26a.15.15 0 00.09 0 2.77 2.77 0 00.58-.44 1.27 1.27 0 01.12-.1.18.18 0 01.22 0 .18.18 0 010 .25.27.27 0 01-.08.07l-.56.43zm-.77.78a.31.31 0 00.08.23.18.18 0 00.19.08.17.17 0 00.12-.14 1.48 1.48 0 000-.3.56.56 0 00-.21-.36 1.37 1.37 0 00-.18.49z" fill="#545454"/>
        <path d="M252.47 205.51s-.16.45-.37.87a.64.64 0 01-.08.14 3.5 3.5 0 01-.24.42 1.2 1.2 0 01-.26.29.42.42 0 01-.56 0 .82.82 0 01-.24-.38 3.1 3.1 0 01-.16-1.25.58.58 0 01.05-.21.31.31 0 01.29-.22.31.31 0 01.28.23 1 1 0 010 .24v1.06a.36.36 0 000 .11s.05.12.15 0a2.91 2.91 0 00.3-.5 6.76 6.76 0 00.35-.83.18.18 0 01.21-.1.16.16 0 01.28.13zm-1.85-1.07a.3.3 0 01.21-.33.27.27 0 01.33.19l.05.11a.21.21 0 01-.19.31.35.35 0 01-.4-.28z" fill="#545454"/>
        <path d="M255.55 205.26s-.72.9-1.16 1.38a4.94 4.94 0 01-.07 1.33 2.73 2.73 0 01-.1.41.61.61 0 01-.36.36.54.54 0 01-.64-.23 1.24 1.24 0 01-.14-1 1.8 1.8 0 01.4-.68l.27-.28s.06-.07.05-.1c0-.34-.05-.66-.07-1h-.1l-.07.09c-.17.24-.33.48-.51.72a2.61 2.61 0 01-.23.24.69.69 0 01-.2.13.39.39 0 01-.53-.15 1 1 0 01-.09-.48 1.77 1.77 0 01.45-1.11.77.77 0 01.8-.25l.38.12v-.13a.27.27 0 01.21-.22.29.29 0 01.27.15 2.76 2.76 0 01.08.27l.15 1.12v.14l.08-.06a8.44 8.44 0 00.76-.92.27.27 0 01.1-.11h.06a.15.15 0 01.16 0 .14.14 0 01.05.26zm-2.27 0l-.2-.06a.3.3 0 00-.34.1 1.14 1.14 0 00-.25.79.11.11 0 000 .06 3.07 3.07 0 00.79-.9zm.55 1.89a1.44 1.44 0 00-.28.44.74.74 0 000 .6s.05.11.11.1.07-.06.08-.11a3.56 3.56 0 00.09-1.04z" fill="#545454"/>
        <path d="M258.54 204.94s-.15.45-.35.91a2.56 2.56 0 01-.56 1 .4.4 0 01-.7-.09.79.79 0 01-.1-.33 4 4 0 010-1.42.59.59 0 010-.11l-.09.1a4.74 4.74 0 00-.45.79c-.07.15-.13.32-.21.47a.8.8 0 01-.13.21.28.28 0 01-.45 0 .45.45 0 01-.12-.21 2.71 2.71 0 01-.16-1.32.32.32 0 010-.14.24.24 0 01.22-.18.23.23 0 01.21.18 1.42 1.42 0 010 .2l.06.68v.2a1.73 1.73 0 00.12-.23.59.59 0 000-.08c.12-.2.23-.41.36-.62a1.42 1.42 0 01.36-.41l.21-.14a.33.33 0 01.46.12.81.81 0 01.12.29 1.69 1.69 0 010 .59c0 .34-.06.68-.09 1a.85.85 0 000 .16 7 7 0 00.77-1.7.16.16 0 01.21-.1.18.18 0 01.31.18zM263.29 204.5c0 .08-.36.82-.87 1h-.1a.61.61 0 01-.19 0l-.09.26a3.55 3.55 0 01-.21.5.93.93 0 01-.18.26.37.37 0 01-.51 0 .61.61 0 01-.19-.2 1 1 0 01-.16-.4v-.34a1 1 0 000-.12l-.06.12c-.06.14-.12.28-.19.41a2.2 2.2 0 01-.21.32.4.4 0 01-.63 0 1.45 1.45 0 01-.17-.26 1.43 1.43 0 01-.14-.5 2.77 2.77 0 010-1.11 1.55 1.55 0 01.07-.23.26.26 0 01.28-.15.25.25 0 01.24.18.85.85 0 010 .23v.88a2.81 2.81 0 010 .29v.24s0-.05.07-.09.13-.23.18-.34l.28-.64a.86.86 0 01.1-.16.29.29 0 01.47 0 .53.53 0 01.11.21v1.12a.29.29 0 00.08.17 2.38 2.38 0 00.37-.83 1.38 1.38 0 01-.46-.88 1.1 1.1 0 010-.54.41.41 0 01.54-.27.59.59 0 01.33.27 1.34 1.34 0 01.07.27 2.36 2.36 0 010 .65v.31a.22.22 0 00.14 0c.29-.08.56-.59.64-.78a.18.18 0 01.22-.09.2.2 0 01.17.24zm-1.41.33v-.49a.46.46 0 00-.06-.23.23.23 0 00-.11-.11c-.06 0-.12 0-.12.06a.15.15 0 000 .07 1.25 1.25 0 00.29.7z" fill="#545454"/>
        <path d="M264 205.4a.69.69 0 00.46-.17 1.28 1.28 0 00.33-.44c.06-.13.1-.25.16-.39a2.18 2.18 0 01.09-.23.18.18 0 01.22-.1.19.19 0 01.13.21.2.2 0 000 .07 2.29 2.29 0 01-.63 1.16 1.19 1.19 0 01-.95.35.91.91 0 01-.78-.51 1.45 1.45 0 01.43-1.76.9.9 0 01.64-.21.69.69 0 01.56 1.06 2.27 2.27 0 01-.38.44.87.87 0 01-.33.17.47.47 0 01-.33 0 .36.36 0 00.38.35zm-.26-.72l.19-.08a1.78 1.78 0 00.32-.35.41.41 0 01.05-.09.22.22 0 00-.24-.29.48.48 0 00-.19.09 1 1 0 00-.33.79z" fill="#545454"/>
        <path d="M268.14 204.15a.83.83 0 01-.15.11.15.15 0 01-.06.05l-.2.14-.09.07v.08a2.13 2.13 0 01-.06.94 1.23 1.23 0 01-.15.35.69.69 0 01-.3.26.49.49 0 01-.74-.37.83.83 0 010-.44 1.73 1.73 0 01.54-.79l.08-.07c-.09-.2-.15-.21-.3-.08a2 2 0 00-.63.87.91.91 0 000 .49.26.26 0 01-.11.27.27.27 0 01-.32 0 .81.81 0 01-.18-.19 1.22 1.22 0 01-.18-.36 8.57 8.57 0 01-.29-1 3.87 3.87 0 010-1.44 2.05 2.05 0 01.45-.91 1.29 1.29 0 01.69-.45.53.53 0 01.71.53 1.43 1.43 0 01-.13.65 7.45 7.45 0 01-.76 1.42c-.1.14-.22.27-.33.4s-.09.1-.06.18 0 .14.08.22v-.09a2.53 2.53 0 01.7-1 1 1 0 01.24-.17.56.56 0 01.73.15l.1.12h.07l.16-.1.17-.1a.19.19 0 01.25 0 .18.18 0 01.07.26zm-2.62-.12a.2.2 0 010-.08l.61-1.13c.06-.13.1-.26.15-.4a.88.88 0 000-.17c0-.09-.05-.13-.14-.09a.92.92 0 00-.21.13 1.43 1.43 0 00-.36.59 3.44 3.44 0 00-.12.64zm1.64 1a1.66 1.66 0 00-.23.41.64.64 0 00-.06.18.2.2 0 000 .18.34.34 0 00.23-.25 2.12 2.12 0 00.06-.55z" fill="#545454"/>
        <path d="M269.37 204.54a1.18 1.18 0 01.16 1.09.67.67 0 01-.5.45.63.63 0 01-.67-.27.77.77 0 01-.11-.61 1.71 1.71 0 01.19-.46l.05-.1-.08-.07-.34-.31a.8.8 0 01-.2-.46.66.66 0 01.37-.64.64.64 0 01.71.09.83.83 0 01.17.21.25.25 0 010 .17.15.15 0 01-.23.1.76.76 0 01-.09-.09.38.38 0 00-.26-.13.25.25 0 00-.22.09.14.14 0 000 .16.59.59 0 00.13.17c.17.1.33.18.5.26a.07.07 0 00.09 0 2.09 2.09 0 00.58-.43l.12-.1a.18.18 0 01.22.28.73.73 0 01-.09.08c-.18.14-.36.29-.56.42zm-.77.77a.28.28 0 00.08.24.16.16 0 00.18.07.16.16 0 00.12-.14 1 1 0 000-.3.53.53 0 00-.21-.35 1.3 1.3 0 00-.17.48z" fill="#545454"/>
        <path d="M271.64 203.69s-.16.44-.37.86l-.08.15a4.49 4.49 0 01-.24.42.9.9 0 01-.27.28.4.4 0 01-.55 0 .87.87 0 01-.25-.38 3 3 0 01-.15-1.24.86.86 0 010-.21.33.33 0 01.29-.23.31.31 0 01.28.24.86.86 0 01.06.23v1.06a.23.23 0 000 .12s.05.12.15.05a3.32 3.32 0 00.31-.49 7.74 7.74 0 00.34-.83.17.17 0 01.22-.1.16.16 0 01.26.07zm-1.85-1.07a.28.28 0 01.21-.33.28.28 0 01.33.18.36.36 0 000 .11.2.2 0 01-.19.31.33.33 0 01-.35-.27z" fill="#545454"/>
        <path d="M271.12 202.86a2.58 2.58 0 01-.42.12.43.43 0 01-.25 0 .25.25 0 01-.11-.43.57.57 0 01.15-.12 2 2 0 01.58-.27h.14v-.3-.32a.77.77 0 010-.15.26.26 0 01.22-.17.24.24 0 01.24.14.84.84 0 01.06.14c0 .12.05.25.06.37a.29.29 0 010 .1h.15a1.41 1.41 0 01.28 0 .39.39 0 01.34.13.26.26 0 01.05.29.2.2 0 01-.21.14 3.32 3.32 0 00-.54.15v.1c.07.58.12 1.16.18 1.74a10.21 10.21 0 00.21 1.21.16.16 0 010 .1.17.17 0 01-.09.16.18.18 0 01-.19 0l-.09-.14a8.8 8.8 0 01-.58-1.73c-.07-.34-.1-.68-.14-1v-.14a.34.34 0 01-.04-.12z" fill="#545454"/>
        <path d="M273.5 204.5a.7.7 0 00.46-.18 1.34 1.34 0 00.34-.44l.15-.38a2.18 2.18 0 01.09-.23.2.2 0 01.22-.11.21.21 0 01.13.22v.06a2.32 2.32 0 01-.63 1.17 1.18 1.18 0 01-.94.35.88.88 0 01-.78-.52 1.44 1.44 0 01.42-1.76.9.9 0 01.64-.21.69.69 0 01.56 1.06 1.61 1.61 0 01-.38.44.72.72 0 01-.33.18.53.53 0 01-.33 0 .36.36 0 00.38.35zm-.25-.73a.71.71 0 00.18-.08 1.35 1.35 0 00.32-.35.73.73 0 00.05-.09.21.21 0 00-.24-.28.77.77 0 00-.19.08 1 1 0 00-.33.8zM245.15 216.19a.85.85 0 00.54-.13 1.36 1.36 0 00.43-.43l.23-.41a1.49 1.49 0 01.14-.24.2.2 0 01.26-.08.23.23 0 01.11.26.25.25 0 000 .07 2.66 2.66 0 01-.88 1.19 1.31 1.31 0 01-1.1.25 1 1 0 01-.78-.69 1.61 1.61 0 01.73-1.89 1 1 0 01.74-.13.76.76 0 01.46 1.25 2.06 2.06 0 01-.49.44.83.83 0 01-.39.14.57.57 0 01-.36-.07.41.41 0 00.36.47zm-.17-.84a.86.86 0 00.21-.07 1.61 1.61 0 00.41-.34.7.7 0 00.06-.09.23.23 0 00-.22-.35.63.63 0 00-.22.07 1 1 0 00-.48.83z" fill="#545454"/>
        <path d="M249.85 215.17a.12.12 0 010 .1s-.26.44-.56.89c-.1.14-.19.25-.27.35s-.2.27-.31.4a1.43 1.43 0 01-.2.23.44.44 0 01-.74-.22 1 1 0 010-.3v-.46a.57.57 0 000-.15s-.07.05-.09.08-.21.23-.32.33a1.15 1.15 0 01-.28.19.56.56 0 01-.79-.23 1 1 0 01-.14-.63 1.87 1.87 0 01.72-1.31 1 1 0 011.13-.1 2.33 2.33 0 01.32.25.23.23 0 010-.07.21.21 0 01.24-.1.25.25 0 01.19.18.34.34 0 010 .2c0 .14-.07.29-.11.43q-.19.51-.36 1a2.22 2.22 0 00-.1.39v.13c0 .06.1-.05.13-.09s.19-.2.28-.31a10.06 10.06 0 00.87-1.28.2.2 0 01.26-.07s.15.13.13.17zm-1.9 0c-.1-.21-.17-.25-.37-.21a.44.44 0 00-.22.1 1.21 1.21 0 00-.44.72.52.52 0 000 .27 5.75 5.75 0 001.08-.92z" fill="#545454"/>
        <path d="M249.38 214.28a3.7 3.7 0 01-.48.07.69.69 0 01-.28 0 .28.28 0 01-.06-.5l.19-.11a2.68 2.68 0 01.68-.21h.16a3.06 3.06 0 010-.32 3.29 3.29 0 01.07-.36.37.37 0 010-.15.28.28 0 01.28-.16.26.26 0 01.24.19.75.75 0 010 .16v.42a.41.41 0 010 .11h.49a.42.42 0 01.35.2.3.3 0 010 .33.27.27 0 01-.26.13 2.64 2.64 0 00-.62.08v.11l-.06 1.95a9.1 9.1 0 00.05 1.38.37.37 0 010 .11c0 .07-.05.14-.13.16a.18.18 0 01-.2-.06.53.53 0 01-.08-.17 9.19 9.19 0 01-.39-2V214.33a.7.7 0 01.05-.05zM253.5 216.12a1.31 1.31 0 010 1.23.74.74 0 01-.63.43.7.7 0 01-.7-.4.8.8 0 010-.69 1.42 1.42 0 01.27-.48.38.38 0 01.08-.11l-.09-.09c-.1-.13-.23-.26-.33-.39a1 1 0 01-.15-.54.76.76 0 01.51-.66.72.72 0 01.77.21 1 1 0 01.15.26.27.27 0 010 .2.16.16 0 01-.27.07L253 215a.38.38 0 00-.27-.18.28.28 0 00-.25.07.16.16 0 000 .17.69.69 0 00.13.21 6 6 0 00.51.37.12.12 0 00.1 0 2.58 2.58 0 00.71-.39l.15-.1a.2.2 0 01.2.35.41.41 0 01-.11.07c-.23.13-.45.27-.68.39a.41.41 0 00.01.16zm-1 .75a.36.36 0 00.05.27.19.19 0 00.2.11.17.17 0 00.15-.14 1.75 1.75 0 000-.33.67.67 0 00-.19-.43 1.56 1.56 0 00-.18.52z" fill="#545454"/>
        <path d="M257.67 215.58s-.24.48-.53 1a3 3 0 01-.76 1 .46.46 0 01-.77-.21 1 1 0 01-.06-.39 4.39 4.39 0 01.24-1.56v-.13a.55.55 0 01-.11.11 5 5 0 00-.62.81c-.09.15-.19.33-.3.48a.6.6 0 01-.18.21.3.3 0 01-.49-.07.62.62 0 01-.11-.25 3.13 3.13 0 010-1.49.39.39 0 01.06-.15.25.25 0 01.27-.16.26.26 0 01.21.23 1.55 1.55 0 010 .22v.99a1.72 1.72 0 00.16-.23l.06-.09.49-.63a1.79 1.79 0 01.47-.4 1.19 1.19 0 01.25-.13.37.37 0 01.49.2 1.4 1.4 0 01.1.35 2.09 2.09 0 01-.07.66c-.08.36-.16.73-.25 1.1v.18a8.17 8.17 0 001.1-1.77.19.19 0 11.33.17z" fill="#545454"/>
        <path d="M260.69 215.6a.12.12 0 010 .1s-.26.44-.57.88c-.09.14-.18.25-.26.36s-.21.26-.31.4a2.19 2.19 0 01-.21.23.44.44 0 01-.73-.23.7.7 0 010-.29c0-.15 0-.31.05-.47a1 1 0 000-.15.75.75 0 00-.09.09c-.1.11-.21.23-.32.33a1.38 1.38 0 01-.28.19.56.56 0 01-.79-.23 1 1 0 01-.14-.63 1.87 1.87 0 01.72-1.31 1 1 0 011.13-.1 3.33 3.33 0 01.32.24.5.5 0 01.05-.07.25.25 0 01.24-.1.26.26 0 01.19.19.34.34 0 010 .2 4 4 0 01-.12.43l-.36 1a2.59 2.59 0 00-.09.4 1.23 1.23 0 000 .13l.13-.09c.09-.11.19-.21.28-.31a9.56 9.56 0 00.87-1.29.2.2 0 01.26-.06l.05.05s0 .07-.02.11zm-1.9 0c-.1-.2-.17-.24-.37-.2a.35.35 0 00-.22.1 1.22 1.22 0 00-.44.71.46.46 0 000 .28 5.8 5.8 0 001.03-.94z" fill="#545454"/>
        <path d="M263 215.75a2.74 2.74 0 01-1.06 1.46 1.44 1.44 0 01-.91.14h-.16a.78.78 0 01-.59-.56 1.84 1.84 0 01-.05-.9.29.29 0 010-.09 2.13 2.13 0 01.3-.77 1.26 1.26 0 01.34-.35.85.85 0 011.09.08.63.63 0 01.19.37 1.48 1.48 0 010 .3.36.36 0 01-.11.24.19.19 0 01-.31-.07 2.33 2.33 0 01-.07-.25.22.22 0 00-.34-.13.41.41 0 00-.12.14 2.16 2.16 0 00-.3 1.24.35.35 0 00.3.34.71.71 0 00.53-.09 2.25 2.25 0 00.47-.34 3.38 3.38 0 00.41-.82.19.19 0 01.23-.13.19.19 0 01.16.19z" fill="#545454"/>
        <path d="M266 215.89c-.12.27-.72 1.55-1.41 1.53a1.06 1.06 0 01-.89-.68.17.17 0 00-.06.14v.43a.26.26 0 01-.36.2.33.33 0 01-.17-.16 1.46 1.46 0 01-.07-.19 10 10 0 01-.24-3.49 4.21 4.21 0 01.09-.49.76.76 0 01.11-.22.27.27 0 01.45 0 .31.31 0 01.09.19 3.62 3.62 0 01.06.46v1.89a1.34 1.34 0 00.06-.12 2 2 0 01.36-.55 1.13 1.13 0 01.37-.28.34.34 0 01.52.21 1 1 0 010 .69 2.19 2.19 0 01-.42.62l-.15.16-.23.18c.06.15.25.53.61.55.2 0 .65-.39 1.06-1.31a.18.18 0 01.24-.09.18.18 0 01-.02.33zm-2.3.3a2 2 0 00.64-.65.58.58 0 00.11-.35.38.38 0 00-.06-.21 2.82 2.82 0 00-.73 1.21z" fill="#545454"/>
        <path d="M267.09 216.66a1.31 1.31 0 010 1.23.76.76 0 01-.63.43.72.72 0 01-.7-.4.82.82 0 010-.7 1.52 1.52 0 01.27-.48.35.35 0 01.08-.1l-.09-.09c-.11-.13-.23-.26-.33-.4a.91.91 0 01-.15-.53.75.75 0 01.5-.66.72.72 0 01.78.21 1.1 1.1 0 01.15.25.28.28 0 010 .2.16.16 0 01-.27.07l-.09-.11a.35.35 0 00-.27-.18.28.28 0 00-.25.07.16.16 0 00-.05.17.84.84 0 00.13.21c.17.13.33.25.51.37h.1a2.58 2.58 0 00.71-.39.78.78 0 01.15-.1.2.2 0 01.2.35l-.11.07-.68.39zm-1 .74a.34.34 0 00.05.28.22.22 0 00.2.11.2.2 0 00.15-.14 1.31 1.31 0 000-.34.61.61 0 00-.18-.42 1.61 1.61 0 00-.19.51zM256.31 242.7a1.49 1.49 0 01.07 1.42.86.86 0 01-.7.53.83.83 0 01-.83-.43.92.92 0 01-.06-.81 2 2 0 01.29-.57l.08-.12-.09-.1-.41-.45a1 1 0 01-.2-.61.88.88 0 01.56-.79.82.82 0 01.91.21 1.12 1.12 0 01.19.29.36.36 0 010 .23.18.18 0 01-.31.09.64.64 0 01-.1-.13.45.45 0 00-.32-.19.36.36 0 00-.3.09.17.17 0 000 .2.7.7 0 00.15.24c.21.15.4.27.61.4a.17.17 0 00.12 0 3 3 0 00.81-.49.74.74 0 01.17-.12.24.24 0 01.24.4l-.12.08-.78.49zm-1.1.91a.42.42 0 00.08.31.22.22 0 00.23.12.21.21 0 00.17-.17 1.67 1.67 0 000-.39.75.75 0 00-.23-.48 1.87 1.87 0 00-.25.61z" fill="#545454"/>
        <path d="M259.93 241.86a8.66 8.66 0 01-.43.88l-.16.29a5.39 5.39 0 01-.43.63 1.34 1.34 0 01-.36.31.68.68 0 01-.75 0 1.14 1.14 0 01-.44-.4 2.16 2.16 0 01-.3-.61 4.8 4.8 0 01-.17-2.35 5 5 0 01.32-1.15 1.87 1.87 0 01.4-.64 1.43 1.43 0 01.26-.23.66.66 0 011 .35 1.94 1.94 0 01.09.64 4.39 4.39 0 01-.2 1.07 8 8 0 01-.85 1.76.28.28 0 000 .15 1.43 1.43 0 00.18.64c.17.26.24.23.44.07a2.07 2.07 0 00.43-.5l.58-1a.63.63 0 000-.09.21.21 0 01.28-.12.21.21 0 01.11.3zm-2.15-.42a.17.17 0 000 .07c.06-.15.11-.26.17-.38a4.35 4.35 0 00.41-1.18 2.49 2.49 0 00.05-.46 1.23 1.23 0 00-.07-.32c0-.12-.12-.14-.2 0a.77.77 0 00-.1.18 2 2 0 00-.18.67c-.02.46-.06.98-.08 1.42z" fill="#545454"/>
        <path d="M264.67 241.88c0 .13-.58 1.76-1.57 1.81a1.19 1.19 0 01-1.1-.69c-.72.78-1.14.78-1.14.78a1.19 1.19 0 01-1.22-.7 2 2 0 01-.08-1.44 1.51 1.51 0 01.74-.9 1 1 0 011 0 .64.64 0 01.35.88 1.46 1.46 0 01-1.22 1 1.18 1.18 0 00.25.57.25.25 0 00.28.09.94.94 0 00.53-.25 2.13 2.13 0 00.5-.62 1.33 1.33 0 00.05-.19 5.42 5.42 0 01.14-.65.88.88 0 01.1-.22.65.65 0 01.19-.26 1.21 1.21 0 01.24-.21.88.88 0 011.19.17.64.64 0 01.1.6.81.81 0 01-.21.37 1.4 1.4 0 01-.94.45h-.11s-.08.86.49.83c.73-.16 1.14-1.43 1.17-1.54a.21.21 0 01.28-.12c-.02.01.01.09-.01.24zm-4.42.32a1.36 1.36 0 001-.72c.12-.19-.06-.37-.28-.34a.51.51 0 00-.31.13 1.33 1.33 0 00-.37.8c-.05.07-.04.02-.04.13zm2.38-.07a1.17 1.17 0 00.78-.46.84.84 0 00.09-.19.24.24 0 00-.07-.21.37.37 0 00-.54 0 1.22 1.22 0 00-.26.86z" fill="#545454"/>
        <path d="M265.46 242.15c.11-.18.24-.37.37-.55a1.35 1.35 0 01.43-.39.7.7 0 011 .25 1.78 1.78 0 01.12.24h.14l.47-.09a.8.8 0 01.27 0 .21.21 0 010 .4l-.25.06-.49.11h-.08a.47.47 0 000 .17 2.63 2.63 0 01-.28 1.1 3.13 3.13 0 01-.29.42.62.62 0 01-.34.22.59.59 0 01-.77-.37 1 1 0 01-.06-.52 1.39 1.39 0 01.52-1l.5-.37c-.07-.19-.14-.21-.29-.09a1 1 0 00-.23.22 5.9 5.9 0 00-.88 1.64 2.41 2.41 0 00-.06.71v1.07a.33.33 0 01-.22.33.32.32 0 01-.38-.16.91.91 0 01-.1-.29c-.07-.34-.15-.67-.2-1a11.69 11.69 0 01-.17-2.43 3.9 3.9 0 01.14-1 1 1 0 01.14-.33.38.38 0 01.71.05 1.68 1.68 0 01.11.4v1.31zm.78 1.14a.26.26 0 00.07.25c.12 0 .17-.12.22-.21a2.8 2.8 0 00.26-.94.14.14 0 000-.07 1.17 1.17 0 00-.55.97zM245.11 229.61a5.37 5.37 0 01-.46 1.07s-.05.09-.09.14a1 1 0 01-.14.21.37.37 0 01-.58 0 .78.78 0 01-.13-.34 3.75 3.75 0 010-.82 1.1 1.1 0 000-.18.85.85 0 00-.1.14c-.09.15-.18.32-.26.48a3.37 3.37 0 01-.19.32.31.31 0 01-.53 0 .75.75 0 01-.15-.23c-.07-.17-.12-.33-.18-.5a1.09 1.09 0 01-.05-.14c0 .07 0 .09-.06.13-.07.22-.14.45-.2.67s-.09.43-.14.63a1.29 1.29 0 01-.07.21.25.25 0 01-.24.15.22.22 0 01-.22-.15c-.05-.13-.1-.26-.14-.4-.11-.41-.2-.81-.3-1.21 0-.11 0-.2-.08-.3s0-.09 0-.13a.21.21 0 01.3-.2.49.49 0 01.16.16 1.46 1.46 0 01.23.51 2.13 2.13 0 00.11.33v-.11a2.76 2.76 0 01.4-.85 1.49 1.49 0 01.12-.14.32.32 0 01.54.09c0 .1.06.21.09.31s.09.45.14.66a.23.23 0 000 .09.35.35 0 00.06-.09c.08-.14.15-.3.23-.44a2.31 2.31 0 01.5-.62.45.45 0 01.14-.1.28.28 0 01.39.12.7.7 0 01.08.27v1.23a5.14 5.14 0 00.45-1 .18.18 0 01.22-.11.18.18 0 01.15.14z" fill="#545454"/>
        <path d="M248.11 229.21a.14.14 0 010 .11s-.2.47-.44 1l-.22.39c-.07.14-.16.28-.24.43a2.2 2.2 0 01-.17.25.44.44 0 01-.76-.11.89.89 0 01-.08-.29v-.47a.72.72 0 000-.15c0 .05-.06.07-.07.1l-.27.37a1.84 1.84 0 01-.25.23.58.58 0 01-.82-.12 1.06 1.06 0 01-.22-.61 1.87 1.87 0 01.53-1.39 1 1 0 011.1-.25 2.57 2.57 0 01.35.2.2.2 0 010-.08.22.22 0 01.22-.13.23.23 0 01.21.15.34.34 0 010 .2v.44c-.08.35-.15.7-.22 1a1.84 1.84 0 000 .41.28.28 0 000 .13l.11-.11.23-.34a11.24 11.24 0 00.69-1.39.18.18 0 01.24-.1h.06a.08.08 0 01.02.13zm-1.88.22c-.13-.18-.2-.21-.4-.15a.44.44 0 00-.2.13 1.29 1.29 0 00-.34.77.45.45 0 00.07.26 5.54 5.54 0 00.87-1.01z" fill="#545454"/>
        <path d="M251.1 229c-.09.28-.5 1.63-1.18 1.7a1.06 1.06 0 01-1-.54.16.16 0 000 .15v.43a.26.26 0 01-.33.25.33.33 0 01-.19-.14.76.76 0 01-.09-.18 9.67 9.67 0 01-.72-3.4 2.79 2.79 0 010-.5 1 1 0 01.07-.23.27.27 0 01.45 0 .52.52 0 01.12.17 3.9 3.9 0 01.12.46c.07.55.13 1.11.2 1.66V228.91a2.53 2.53 0 01.28-.6 1.15 1.15 0 01.33-.33.34.34 0 01.54.14 1 1 0 01.08.68 2 2 0 01-.34.67 1.88 1.88 0 01-.12.18l-.2.21c.08.14.32.49.68.46.2 0 .59-.48.86-1.44a.17.17 0 01.22-.12.18.18 0 01.22.24zm-2.23.61a2 2 0 00.55-.72.74.74 0 00.05-.37.36.36 0 00-.09-.19 2.82 2.82 0 00-.51 1.28z" fill="#545454"/>
        <path d="M251.89 230a.82.82 0 00.51-.2 1.45 1.45 0 00.36-.49c.06-.14.11-.28.17-.43s.06-.17.1-.26a.21.21 0 01.25-.11.22.22 0 01.15.23.45.45 0 010 .08 2.62 2.62 0 01-.69 1.3 1.3 1.3 0 01-1.05.39 1 1 0 01-.88-.57 1.61 1.61 0 01.46-2 1 1 0 01.72-.24.77.77 0 01.63 1.18 2.22 2.22 0 01-.42.49.89.89 0 01-.37.2.55.55 0 01-.36 0 .39.39 0 00.42.43zm-.3-.81a1 1 0 00.21-.09 1.46 1.46 0 00.35-.39.31.31 0 000-.1.22.22 0 00-.26-.31.56.56 0 00-.21.09 1.07 1.07 0 00-.36.89zM256.71 228.39a2.12 2.12 0 01-.53 1.41 1.55 1.55 0 01-.41.3h-.07l.07.09a1 1 0 01.26.77 1.66 1.66 0 01-.26.84.7.7 0 01-.3.27.58.58 0 01-.61-.08.94.94 0 01-.28-.38 3.44 3.44 0 01-.24-.77 8 8 0 010-2.76 4.71 4.71 0 01.32-1.11 1.72 1.72 0 01.33-.55.76.76 0 01.31-.25.55.55 0 01.59.05.73.73 0 01.3.64 2.31 2.31 0 01-.28 1 7.62 7.62 0 01-.85 1.32.45.45 0 00-.07.37.17.17 0 00.1.12.84.84 0 00.34.08.87.87 0 00.55-.26 1.21 1.21 0 00.33-.58.22.22 0 000-.08c0-.12 0-.24.05-.35a.31.31 0 010-.13.18.18 0 01.18-.19.18.18 0 01.17.23zm-1.16 2.55a.65.65 0 00-.06-.24 1.42 1.42 0 00-.56-.52 5.08 5.08 0 00.08 1 3.38 3.38 0 00.13.42c0 .05.05.12.13.13s.1-.07.14-.12a1.14 1.14 0 00.14-.67zm-.58-2.21s.05 0 0 0a5.29 5.29 0 00.64-1 1.65 1.65 0 00.14-.65.6.6 0 00-.06-.23c-.07-.17-.18-.18-.29 0a1.89 1.89 0 00-.21.48 9.08 9.08 0 00-.26 1.38.48.48 0 01.07.02z" fill="#545454"/>
        <path d="M259.69 228.14c0 .11-.08.32-.15.53 0 0 0 .13-.07.2a.38.38 0 010 .1 3.19 3.19 0 00-.14.35 2.77 2.77 0 01-.22.37.38.38 0 01-.63 0 .68.68 0 01-.18-.32 5.29 5.29 0 01-.15-.57.61.61 0 010-.13.84.84 0 000 .12c-.1.29-.19.57-.29.84a1.14 1.14 0 01-.18.32.48.48 0 01-.73.13.93.93 0 01-.31-.42 2.59 2.59 0 01-.11-.37c0-.24-.08-.48-.1-.73a2.31 2.31 0 010-.37.84.84 0 01.05-.17.34.34 0 01.56-.06.59.59 0 01.14.35c0 .34.05.67.08 1a.89.89 0 00.06.35 1.25 1.25 0 01.09-.12c.06-.14.14-.27.2-.42.17-.42.33-.83.49-1.25a1 1 0 000-.18 2.29 2.29 0 01.09-.31.28.28 0 01.49-.08 1 1 0 01.13.27 1.67 1.67 0 010 .39V229.12a1.15 1.15 0 000 .14l.07-.09a8.19 8.19 0 00.46-1.14.17.17 0 01.21-.13.18.18 0 01.14.24z" fill="#545454"/>
        <path d="M263 227.83s-.17.5-.39 1a3 3 0 01-.62 1.08.46.46 0 01-.79-.11 1.13 1.13 0 01-.1-.37 4.15 4.15 0 010-1.57.78.78 0 010-.13l-.1.12a4.72 4.72 0 00-.49.88c-.08.17-.15.35-.24.52a.84.84 0 01-.14.24.31.31 0 01-.5 0 .68.68 0 01-.14-.23 3 3 0 01-.18-1.47.41.41 0 010-.16.28.28 0 01.24-.2.27.27 0 01.24.2 1.43 1.43 0 010 .22l.08.76V228.83a2.12 2.12 0 00.13-.25l.05-.09c.14-.23.26-.47.4-.7a2 2 0 01.4-.46 1.67 1.67 0 01.24-.16.36.36 0 01.51.13 1.36 1.36 0 01.14.33 1.84 1.84 0 010 .66l-.09 1.12a1.08 1.08 0 000 .18 8.14 8.14 0 00.85-1.89.18.18 0 01.23-.12.2.2 0 01.27.25zM265.43 228.29a1.29 1.29 0 01.18 1.21.73.73 0 01-.56.51.69.69 0 01-.74-.3.78.78 0 01-.12-.68 1.75 1.75 0 01.2-.51l.06-.11-.09-.08-.36-.33a.86.86 0 01-.23-.5.75.75 0 01.41-.72.7.7 0 01.8.1.8.8 0 01.18.23.25.25 0 010 .19.15.15 0 01-.25.11l-.1-.1a.4.4 0 00-.29-.14.29.29 0 00-.25.1.17.17 0 000 .18.77.77 0 00.16.19 5.77 5.77 0 00.55.29.17.17 0 00.1 0 2.85 2.85 0 00.65-.49l.13-.12a.21.21 0 01.25.05.2.2 0 010 .27l-.09.09-.62.47zm-.86.87a.35.35 0 00.09.26.2.2 0 00.21.08.17.17 0 00.13-.15 1.29 1.29 0 000-.34.59.59 0 00-.24-.39 1.57 1.57 0 00-.19.54z" fill="#545454"/>
        <path d="M265.6 226.59l-.46.14a.88.88 0 01-.28 0 .29.29 0 01-.13-.49 1.92 1.92 0 01.17-.13 2.2 2.2 0 01.64-.3l.15-.05v-.33-.36a.78.78 0 010-.16.3.3 0 01.25-.2.28.28 0 01.27.16l.06.15c0 .13.05.28.07.41a.45.45 0 010 .11.74.74 0 00.17 0h.31a.42.42 0 01.38.15.29.29 0 01.06.32.25.25 0 01-.24.16 3.06 3.06 0 00-.59.17.4.4 0 000 .11l.21 1.93a8.79 8.79 0 00.24 1.36.18.18 0 010 .1.17.17 0 01-.11.18.17.17 0 01-.2 0 .49.49 0 01-.1-.15 8.8 8.8 0 01-.66-1.93c-.07-.37-.12-.75-.16-1.13v-.16zM270.48 227.06c0 .11-.08.31-.15.53 0 0 0 .13-.07.2a.38.38 0 010 .1 3.19 3.19 0 00-.14.35 2.77 2.77 0 01-.22.37.38.38 0 01-.63 0 .68.68 0 01-.18-.32 5.29 5.29 0 01-.15-.57.79.79 0 010-.13.84.84 0 000 .12c-.1.29-.19.57-.29.84a1.14 1.14 0 01-.18.32.48.48 0 01-.73.13.93.93 0 01-.31-.42 2.59 2.59 0 01-.11-.37c0-.24-.08-.48-.1-.74a2.28 2.28 0 010-.36.84.84 0 01.05-.17.34.34 0 01.56-.06.59.59 0 01.14.35c0 .34.05.67.08 1a.89.89 0 00.06.35l.09-.12c.06-.14.14-.27.2-.42.17-.42.33-.83.49-1.25a1 1 0 000-.18 2.29 2.29 0 01.09-.31.28.28 0 01.49-.08 1 1 0 01.13.27 1.67 1.67 0 010 .39v1.15a1 1 0 000 .15l.07-.09a8.19 8.19 0 00.46-1.14.17.17 0 01.21-.13.18.18 0 01.14.24z" fill="#545454"/>
        <path d="M274.62 226.66c0 .06-.3 1.16-1 1.33 0 .11 0 .22.05.33a1.57 1.57 0 01-.17.85.89.89 0 01-.22.29.42.42 0 01-.6 0 1.32 1.32 0 01-.18-.22 2.91 2.91 0 01-.49-1.36v-.21l-.42.26a1.42 1.42 0 01.24 1.32 1 1 0 01-.17.33.43.43 0 01-.47.15 1 1 0 01-.63-.48 2.42 2.42 0 01-.3-.77 5.71 5.71 0 01-.16-1 7.41 7.41 0 010-1.63 3.08 3.08 0 01.35-1.14 2 2 0 01.22-.34 1.09 1.09 0 01.27-.21.63.63 0 01.85.23 1 1 0 01.1.77 1.83 1.83 0 01-.28.62c-.21.31-.43.62-.66.92a.34.34 0 00-.09.29 2.3 2.3 0 010 .37.1.1 0 00.09.11l.21.05a.57.57 0 00.56-.2l.07-.07a.56.56 0 00.14-.4 6 6 0 010-1.27 3.15 3.15 0 01.28-1 1.53 1.53 0 01.43-.55.63.63 0 011 .29.76.76 0 010 .37 1.78 1.78 0 01-.1.5 4 4 0 01-.78 1.35v.05c-.08.09-.08.15 0 .23a3.29 3.29 0 01.64.7.28.28 0 000 .06c.49-.06.76-1 .76-1.06a.18.18 0 01.22-.14.18.18 0 01.24.28zm-3.09 1.87a.85.85 0 00-.56-.63c0 .25.06.48.1.71s.07.28.11.43a.47.47 0 00.22.27.94.94 0 00.13-.78zm-.64-2.2a7.1 7.1 0 00.55-.8 1.41 1.41 0 00.14-.44.57.57 0 00-.12-.45.14.14 0 00-.25 0 .68.68 0 00-.12.24 4.77 4.77 0 00-.15.54 5.5 5.5 0 00-.05.91zm2.23 1.32a1.28 1.28 0 00-.29-.32.3.3 0 00.29.32zm.17.43h-.4a4.55 4.55 0 00.22.9.94.94 0 00.18-.9zm-.53-1.93a3.51 3.51 0 00.45-1 1.57 1.57 0 00.05-.3.43.43 0 000-.19c0-.1-.1-.11-.15 0a1.11 1.11 0 00-.14.29 3.94 3.94 0 00-.22 1c.03-.02.02.05.01.2z" fill="#545454"/>
      </g>
      <g class="books">
        <rect x="70.1" y="365.65" width="45.89" height="7.46" rx="2.3" fill="#6fdcbf"/>
        <rect x="106.78" y="365.65" width="1.6" height="7.46" fill="#fff" opacity=".54"/>
        <path d="M85.3 369.38a2.09 2.09 0 11-2.08-2.08 2.09 2.09 0 012.08 2.08" fill="#fff" opacity=".54"/>
        <rect x="75.08" y="373.12" width="45.89" height="8.35" rx="2.11" fill="#b2b2d8"/>
        <rect x="79.34" y="374.36" width="1.49" height="5.85" fill="#fff" opacity=".54"/>
        <rect x="82.17" y="374.36" width="1.49" height="5.85" fill="#fff" opacity=".54"/>
        <rect x="111.47" y="374.36" width="1.49" height="5.85" fill="#fff" opacity=".54"/>
        <rect x="114.3" y="374.36" width="1.49" height="5.85" fill="#fff" opacity=".54"/>
        <path d="M115.73 366h-40a2 2 0 01-1.87-2v-4.14a2 2 0 011.87-2h40a.54.54 0 01.52.56v7.06a.54.54 0 01-.52.52z" fill="#63abd3"/>
        <path d="M116.25 364.83H76.61a1.19 1.19 0 01-1.13-1.23v-3.38a1.19 1.19 0 011.13-1.22h39.64z" fill="#fffefd"/>
        <path d="M77.27 361.37q18.44-.58 36.86-.28a.41.41 0 000-.82q-18.43-.3-36.86.28c-.53 0-.53.84 0 .82zM77.27 363q18.44-.58 36.86-.29a.41.41 0 000-.82q-18.43-.3-36.86.28a.42.42 0 000 .83zM77.27 364.66q18.44-.59 36.86-.28a.41.41 0 000-.82q-18.43-.3-36.86.28c-.53 0-.53.84 0 .82z" fill="#f7eadf"/>
      </g>
      <g class="books2">
        <path d="M72.68 267.43l9.62-34.51a1.4 1.4 0 00-1.09-1.82l-6.44-2a1.39 1.39 0 00-1.91.91l-9.62 34.52a.44.44 0 00.26.56.43.43 0 00.52-.32l.12-.37 7.86 2.43" fill="#6fdcbf"/>
        <path d="M75 230.48a1.37 1.37 0 00-1.65 1l-9.14 32.95 3.79 1.19 9.56-34.33z" fill="#d2d8db"/>
        <path d="M72 266.83l9.13-32.95a1.38 1.38 0 00-.8-1.76l-2.74-.83L68 265.62l4 1.21" fill="#e2e6e8"/>
        <path d="M74.43 246.27s2.09-9.92 4.2-14c-.55 2.54-.63 3.73-4.2 14z" fill="#a3aeb2"/>
        <polygon points="76.53 238.97 79.58 239.9 79.36 237.98 80.72 236.55 77.56 235.59 76.53 238.97" fill="#af91db"/>
        <polyline points="93.09 267.77 93.09 218.01 104.3 218.01 104.3 267.77" fill="#a3d9e8"/>
        <rect x="93.1" y="224.33" width="11.2" height="1.79" fill="#6fdcbf"/>
        <rect x="93.1" y="226.93" width="11.2" height="1.79" fill="#6fdcbf"/>
        <polyline points="82.38 267.77 82.38 222.37 92.97 222.37 92.97 267.77" fill="#dd859c"/>
        <rect x="82.38" y="232.29" width="10.59" height="1.62" fill="#fff" opacity=".54"/>
        <rect x="82.38" y="234.64" width="10.59" height="1.62" fill="#fff" opacity=".54"/>
      </g>
      <g class="mouse">
        <path d="M292.27 379.94h-14.49c-1.9-6.55 16.34-6.73 14.49 0z" fill="#babcbe" fill-rule="evenodd"/>
        <path d="M277.81 378c1.46-4.11 12.87-4.36 14.42 0a18.53 18.53 0 01-14.42 0z" fill="#e5e6e7" fill-rule="evenodd"/>
        <path d="M285.72 375.08a.09.09 0 01-.09.09h-1.22a.09.09 0 01-.09-.09v-.37c0-.11.26-.2.57-.2h.26c.31 0 .57.09.57.2z" fill="#424243" fill-rule="evenodd"/>
        <rect x="272.26" y="379.9" width="25.52" height=".81" rx=".3" fill="#b2b2d8"/>
      </g>
      <rect class="shelf" x="14.16" y="266.81" width="99.83" height="4.23" fill="#404040"/>
      <g class="computer">
        <polygon points="248.21 379.21 246.44 367.9 224.74 367.9 222.97 379.21 248.21 379.21" fill="#d2cfd6"/>
        <path d="M168.29 369.14a3.31 3.31 0 01-3.31-3.31v-12.4H306.2v12.4a3.31 3.31 0 01-3.31 3.31z" fill="#fff"/>
        <path d="M306 353.68v12.15a3.06 3.06 0 01-3.06 3.06H168.29a3.06 3.06 0 01-3.06-3.06v-12.15H306m.5-.5H164.73v12.65a3.56 3.56 0 003.56 3.56h134.6a3.56 3.56 0 003.56-3.56v-12.65z" fill="#404040"/>
        <path d="M302.55 276.13H168.63a3.91 3.91 0 00-3.9 3.9v74.15h141.72V280a3.91 3.91 0 00-3.9-3.87z" fill="#404040"/>
        <rect x="169.98" y="280.79" width="131.38" height="68.78" fill="#fff"/>
        <rect x="212.68" y="379.22" width="45.82" height="1.69" fill="#eaeaea"/>
        <circle cx="235.59" cy="361.91" r="2.74" fill="#333"/>
        <rect x="182.75" y="312.33" width="43.27" height="31.31" rx="3.22" fill="#f2c5c2"/>
        <path d="M198.46 321.89a5.95 5.95 0 11-5.94-5.95 5.94 5.94 0 015.94 5.95z" fill="#fff" opacity=".48" style="mix-blend-mode:overlay"/>
        <rect x="236.06" y="288.78" width="57.25" height="54.86" rx="3.34" fill="#fff9cc"/>
      </g>
      <g class="mug">
        <path d="M135.77 362.94a.86.86 0 01-.84.89.87.87 0 01-.9-.84 2.15 2.15 0 00-.26-.9 3.23 3.23 0 00-.92-1.1 1.78 1.78 0 00-1.15-.41 1.55 1.55 0 00-.72.19l-.17.1a2.23 2.23 0 00-1 1.6 4.58 4.58 0 00.57 2.76c.08.16.18.33.29.52a16.6 16.6 0 002.72 3c1.79 1.73 3.64 3.51 4.2 6a.87.87 0 01-1.7.38c-.44-1.94-2.1-3.55-3.71-5.09a18.28 18.28 0 01-3-3.38c-.13-.21-.24-.42-.36-.64a6.29 6.29 0 01-.74-3.82 3.92 3.92 0 011.85-2.82 2.79 2.79 0 01.28-.16 3.34 3.34 0 011.46-.38 3.52 3.52 0 012.25.76 5 5 0 011.41 1.7 3.88 3.88 0 01.44 1.64z" fill="#cc7d96"/>
        <path d="M152.51 357.82c.08 4.69-1.07 19.43-4.84 23.22h-8.07c-3.77-3.79-4.93-18.53-4.84-23.22z" fill="#dd859c" fill-rule="evenodd"/>
      </g>
      <g id="light">
        <polygon points="131.3 171.07 44.62 383.67 270.25 383.67 183.89 171.07 131.3 171.07" fill="#feffe6" style="mix-blend-mode:luminosity" class="beam" opacity=".45"/>
        <path class="light-2" data-name="light" d="M169.4 171.07c0 7.12-5.26 12.88-11.75 12.88s-11.74-5.76-11.74-12.88 5.26-12.88 11.74-12.88 11.75 5.81 11.75 12.88z" fill="#fff9cc"/>
        <rect x="156.58" y="-22.52" width="2.14" height="141.6" fill="#af91db"/>
        <path d="M160.59 121.53v-2.78a2.37 2.37 0 00-2.25-2.48H157a2.38 2.38 0 00-2.26 2.48v2.78a7.74 7.74 0 015.88 0z" fill="#b2b2d8"/>
        <path d="M166.32 130.46v8.74l-.36-.08a54.86 54.86 0 00-15.25-.19l-1.37.19-.36.08v-8.74a9.46 9.46 0 01.1-1.41 9.69 9.69 0 01.32-1.48v-.17a7.43 7.43 0 01.26-.71.36.36 0 010-.11c.05-.14.12-.28.18-.41a4.69 4.69 0 01.21-.45 9.64 9.64 0 011-1.51 8.79 8.79 0 011.43-1.43l.5-.36a6 6 0 01.53-.34 6.12 6.12 0 01.56-.31l.55-.24a7.77 7.77 0 015.89 0 9.21 9.21 0 015.3 6 10.25 10.25 0 01.51 2.93z" fill="#af91db"/>
        <path d="M184 171.07h-52.7l1.58-12.67c1-7.93 8.1-17.48 16.1-19.2l.36-.08 1.43-.2a55.2 55.2 0 0115.19.2l.36.08c8 1.72 15.14 11.27 16.11 19.2z" fill="#af91db"/>
        <polygon points="184 171.07 131.31 171.07 129.27 171.07 129.27 174.83 186.04 174.83 186.04 171.07 184 171.07" fill="#b2b2d8"/>
        <path d="M166.32 130.46H149a9.46 9.46 0 01.1-1.41 9.69 9.69 0 01.32-1.48h16.5a10.25 10.25 0 01.4 2.89zM166.32 136.41v2.79l-.36-.08a54.86 54.86 0 00-15.25-.19l-1.37.19-.36.08v-2.66c3-.3 6.17-.45 9.37-.45 2.72 0 5.37.1 7.97.32z" fill="#b2b2d8"/>
      </g>
      <rect x="39.16" y="380.91" width="282.24" height="10.02" rx="5.01" fill="#404040" class="table"/>
      <path d="M144.46 351.27c-.57-.56-3-3.52 0-6.19s1.92-3.76.11-6.19M148.66 355.77c-.56-.57-3-3.52 0-6.2s1.92-3.76.11-6.19M138.54 355.77c-.56-.57-3-3.52 0-6.2s1.92-3.76.11-6.19" fill="none" stroke="#d1d1d1" stroke-linecap="round" stroke-miterlimit="10"/>
      <line x1="184.71" y1="293.98" x2="219.2" y2="293.98" fill="none" stroke="#dd859c" stroke-linecap="round" stroke-miterlimit="10" stroke-width="2"/>
      <line x1="184.71" y1="299.87" x2="225.33" y2="299.87" fill="none" stroke="#dd859c" stroke-linecap="round" stroke-miterlimit="10" stroke-width="2"/>
      <line x1="184.71" y1="305.76" x2="219.2" y2="305.76" fill="none" stroke="#dd859c" stroke-linecap="round" stroke-miterlimit="10" stroke-width="2"/>
      <line x1="188.05" y1="338.62" x2="205.92" y2="338.62" fill="none" stroke="#fff" stroke-linecap="round" stroke-miterlimit="10" stroke-width="2" opacity=".68"/>
      <line x1="188.05" y1="333.48" x2="214.2" y2="333.48" fill="none" stroke="#fff" stroke-linecap="round" stroke-miterlimit="10" stroke-width="2" opacity=".68"/>
      <line x1="242.76" y1="294.24" x2="277.25" y2="294.24" fill="none" stroke="#fff" stroke-linecap="round" stroke-miterlimit="10" stroke-width="2" opacity=".81"/>
      <line x1="242.76" y1="300.14" x2="283.38" y2="300.14" fill="none" stroke="#fff" stroke-linecap="round" stroke-miterlimit="10" stroke-width="2" opacity=".81"/>
      <line x1="242.76" y1="306.03" x2="277.25" y2="306.03" fill="none" stroke="#fff" stroke-linecap="round" stroke-miterlimit="10" stroke-width="2" opacity=".81"/>
      <line x1="242.76" y1="316.56" x2="260.63" y2="316.56" fill="none" stroke="#fff" stroke-linecap="round" stroke-miterlimit="10" stroke-width="2" opacity=".81"/>
      <line x1="242.76" y1="311.43" x2="268.91" y2="311.43" fill="none" stroke="#fff" stroke-linecap="round" stroke-miterlimit="10" stroke-width="2" opacity=".81"/>
      <path d="M275 203.31a43.3 43.3 0 01-14.3 2.64c-2.41.08-4.82.05-7.22 0a61.81 61.81 0 00-7.7.08 18.75 18.75 0 00-7.29 2.11.25.25 0 00.25.43c4.43-2.45 9.6-2.26 14.5-2.12a78.39 78.39 0 0014.12-.58 37.1 37.1 0 007.77-2.06c.3-.12.17-.6-.13-.48z" fill="#6fdcbf"/>
    </g>
  </g>
</svg>