<svg id="me" xmlns="http://www.w3.org/2000/svg" xmlns:xlink="http://www.w3.org/1999/xlink" viewBox="0 0 211.73 188.36">
  <defs>
    <clipPath id="clip-path">
      <path d="M39,153.73s31.57,19.71,77.26,15.21,90.18-37.23,90.36-72.33S197.8,16.33,173,10.32C136.84-6.57,114.13-5.82,88-2.82S34.73,11.45,16.71,48.24C-1.5,66.64-4.88,125.2,39,153.73Z" fill="none"/>
    </clipPath>
    <linearGradient id="linear-gradient" x1="102.92" y1="33.39" x2="102.92" y2="150.96" gradientTransform="matrix(1, 0, 0, -1, 0, 187.89)" gradientUnits="userSpaceOnUse">
      <stop offset="0" stop-color="#fff5cc"/>
      <stop offset="0.01" stop-color="#faf0c8"/>
      <stop offset="0.19" stop-color="#c2b599"/>
      <stop offset="0.35" stop-color="#998977"/>
      <stop offset="0.47" stop-color="#806f62"/>
      <stop offset="0.54" stop-color="#77655a"/>
      <stop offset="0.6" stop-color="#77655a"/>
      <stop offset="1" stop-color="#77655a"/>
    </linearGradient>
  </defs>
  <path d="M39,153.73s31.57,19.71,77.26,15.21,90.18-37.23,90.36-72.33-10.51-57-35.28-63-50.22,17-76.31,20S34.91,37.73,16.71,56.12-4.88,125.2,39,153.73Z" fill="#6fdcbf"/>
  <g clip-path="url(#clip-path)">
    <g id="me-2">
      <g id="body">
        <path id="shadow" d="M129.86,48.47s6.76,4.91,10,12.07,7,29.06,11.71,39.82,9.06,22.5,9.91,26.42,1.57,5-2.52,10.2-14.63,12-14.63,12l-11.47,6.8s14.87,9.67,17.68,19.32a71.4,71.4,0,0,1,4.34,18.79l-21.39,4.54L113.2,164.85l-13-11.1L90.31,75.37Z" opacity="0.09" style="isolation: isolate"/>
        <path id="shadow-2" d="M69.44,54A23.66,23.66,0,0,0,58.91,64.27c-4.39,7.87-4.1,30.52-7.61,41.23S40.76,124.26,41.93,135s2.64,12.27,2.64,12.27a66.5,66.5,0,0,1,14.93,1.88c7,1.89,18.42,5.48,18.42,5.48S63.6,166.53,61.84,176a67.38,67.38,0,0,0-2.34,18.26l20.89,1.9,16.19-34,11.42-12L109.91,75Z" opacity="0.09" style="isolation: isolate"/>
        <path id="hair-back" d="M127.63,45.17c2.65,1.35,11.15,4.2,16.07,23.12,2.88,20.58,3.79,26.07,4.68,30.6s1.2,11.6,6.3,21.15.85,14.65.85,14.65l-7.63,7.08s3.45-12.65-2.63-18.13c0,0,2,14,0,17s-8.75,6.92-8.75,6.92-2.48-4.53-5.06-9.64,2.78,11,.08,12.09-18.82,6.25-30.6,3.86-21.53-5-24-5.79c0,0,2.75-1.37.77-7.62s-1-7.59-1.52-7-2.1,3-1,7.49a7.47,7.47,0,0,1-1.92,7.18s-7.11-4.65-12.77-5.21a51,51,0,0,1-9.5-1.78s-5-11.43-.4-23.56S58,104.1,58.32,88.87s2.41-34.66,20.41-45S116.87,35.4,127.63,45.17Z" fill="url(#linear-gradient)"/>
        <path id="neck" d="M114.26,143.16v-14a9.22,9.22,0,1,0-18.43-.61v14.61C80.56,146,71.09,158.24,71.09,170.49H139C139,158.25,129.5,146,114.26,143.16Z" fill="#ede3d1"/>
        <path id="shadow-3" d="M95.82,122.36h18.41v14.31s-10.5,5.54-18.41,0Z" fill="#efceb9" opacity="0.41" style="isolation: isolate"/>
        <rect id="face" x="73.99" y="48.25" width="61.54" height="80.49" rx="26.08" fill="#ede3d1"/>
      </g>
      <g id="ear-left">
        <path d="M63.52,105.14a8.21,8.21,0,0,0,8.35,8.06H72a8.36,8.36,0,0,0,8.51-8.1A8.21,8.21,0,0,0,72.2,97H72A8.36,8.36,0,0,0,63.52,105.14Z" fill="#ede3d1"/>
        <path d="M68.54,104.48a17,17,0,0,1,4.14.41c1.07.31,1.94,1,3,1.31a.39.39,0,0,0,.47-.29h0a.45.45,0,0,0,0-.28c-1.15-2.38-5.49-1.86-7.58-1.67a.26.26,0,0,0,0,.52Z" fill="#b5aa9a"/>
      </g>
      <g id="ear-right">
        <path d="M144.37,105.24A8.2,8.2,0,0,1,136,113.3h0a8.35,8.35,0,0,1-8.51-8.1,8.21,8.21,0,0,1,8.36-8.06h.06A8.35,8.35,0,0,1,144.37,105.24Z" fill="#ede3d1"/>
        <path d="M139.6,104c-2.1-.19-6.43-.72-7.59,1.67a.38.38,0,0,0,.13.52h0a.37.37,0,0,0,.29,0c1.07-.26,1.92-1,3-1.31a17.56,17.56,0,0,1,4.15-.41.26.26,0,0,0,.26-.26.26.26,0,0,0-.26-.26h0Z" fill="#b5aa9a"/>
      </g>
      <path id="eye-left" d="M89.48,87.37c-.07,2.08,1.25,3.8,2.94,3.85s3.1-1.59,3.16-3.67-1.25-3.8-2.94-3.85S89.54,85.29,89.48,87.37Z" fill="#2b343b"/>
      <path id="eyebrow-right" d="M120.73,79a9,9,0,0,0-4-1.22,9.79,9.79,0,0,0-4.19.87" fill="none" stroke="#b5aa9a" stroke-linecap="round" stroke-linejoin="round" stroke-width="1.04"/>
      <path id="eyebrow-left" d="M97.12,79.41a9.51,9.51,0,0,0-4-1.11,10.57,10.57,0,0,0-4.2.76" fill="none" stroke="#b5aa9a" stroke-linecap="round" stroke-linejoin="round" stroke-width="1.04"/>
      <path id="top" d="M105.61,167c-30.17,0-25.36-40-25.36,15.84H105.6l25-2.14C130.55,124.91,135.77,167,105.61,167Z" fill="#fff" stroke="#404040" stroke-miterlimit="10" stroke-width="0.5"/>
      <path id="shoulder" d="M95.82,142.87c-16,1.84-29.37,19.5-29.37,40H95.82Z" fill="#404040"/>
      <path id="eye-right" d="M113.67,87.37c-.07,2.08,1.25,3.8,2.94,3.85s3.1-1.59,3.16-3.67-1.25-3.8-2.94-3.85S113.73,85.29,113.67,87.37Z" fill="#2b343b"/>
      <path id="shoulder-2" d="M114.23,142.67c15.76,1.85,29,19.6,29,40.2h-29Z" fill="#404040"/>
      <path id="mouth-2" d="M97,107.52s7.06,4.62,14,1.59" fill="none" stroke="#b5aa9a" stroke-linecap="round" stroke-linejoin="round" stroke-width="1.04"/>
      <path id="nose" d="M102.39,98.13s3.09,1.55,5.78,0" fill="none" stroke="#e0d5c1" stroke-linecap="round" stroke-linejoin="round"/>
      <path id="glasses" d="M133.54,81.76c-4.7-1.42-15.29-2.42-19.83-.45-5.82,2.17-3.18,1.57-8.55,1.17-5.36.4-2.74,1-8.55-1.18-7.3-2.55-15.58-.24-22.25.72v2.75c2.46.24,1.26,6.78,3.06,10.32,2.13,7.23,12.69,9.55,18.19,5.49,3.9-2,7.08-10.32,7.21-12.86,0-1.64,4.15-2.57,4.61.24.11,2.53,3.42,10.69,7.28,12.62,5.5,4,16,1.74,18.17-5.49,1.8-3.54,1.69-9.92,2.88-10.32s.74-2.67,0-2.75S134.74,81.92,133.54,81.76ZM97.25,97.49C90.94,104.81,79,101.2,78,92.3c-.7-2.62-1-7.3,1.27-9.12s6.88-1.87,9.23-2C99.64,80.92,105.12,86.78,97.25,97.49Zm35.12-5.19c-3.71,17.2-27.26,7.42-22.09-7.36,1.87-3.11,9.09-3.84,11.55-3.73C129.9,81.17,134.53,83,132.37,92.3Z" fill="#c6c6c6" opacity="0.48" style="isolation: isolate"/>
      <path id="blush-left" d="M89.9,98.17a2.66,2.66,0,0,1-1.55-.93,3.73,3.73,0,0,1-.76-3.12,3,3,0,0,1,1-1.56,2,2,0,0,1,1.4-.42,3,3,0,0,1,2.5,2.72.74.74,0,0,1,0,.21,3.11,3.11,0,0,1,.11.91,2.11,2.11,0,0,1-1.77,2.21A2.08,2.08,0,0,1,89.9,98.17ZM89.34,96Z" fill="#efceb9" fill-rule="evenodd"/>
      <path id="blush-right" d="M118.93,98.19A2.09,2.09,0,0,1,117.16,96a3.48,3.48,0,0,1,.1-.91v-.21a3,3,0,0,1,2.51-2.72,2,2,0,0,1,1.4.42,3,3,0,0,1,1,1.56,3.73,3.73,0,0,1-.76,3.12,2.66,2.66,0,0,1-1.55.93A2.09,2.09,0,0,1,118.93,98.19Zm1.53-2.2h0Z" fill="#efceb9" fill-rule="evenodd"/>
    </g>
  </g>
  <path d="M134.1,57.61C129.22,51.79,118,45,115.33,44.84s-13-1.87-20.65,0-16,4.51-18.77,8.26-6.17,18-4.77,24.41c0,0,3-3.09,10.46-5.73h0s.74-6.33,1.45-7.18a32.21,32.21,0,0,0-.1,6.73,59.68,59.68,0,0,1,8.22-2,37.3,37.3,0,0,1,.25-8.11,66.76,66.76,0,0,0,.54,8c2-.32,4.18-.59,6.52-.78h0s.18-2.82.61-5.5c0,0,.28,3.33.6,5.42,1.78-.12,3.64-.19,5.62-.21a77.09,77.09,0,0,1,9.11.45c0-2.15,0-6.82-.22-7.36s1.07,2.06,1.54,7.52a51.22,51.22,0,0,1,8.84,1.92c.23-2.37.41-5.93-.3-7.88,0,0,2.1,5,1.9,8.42h0c8.36,3,11.06,7.25,11.06,7.25S139,63.43,134.1,57.61Z" fill="#77655a"/>
</svg>
